<svg width="192" height="192" viewBox="0 0 192 192" fill="none" xmlns="http://www.w3.org/2000/svg">
<path d="M96.4493 31C87.8066 40.0583 82.2864 53.7018 82.2194 68.9929C82.1531 84.284 87.5531 98.0374 96.1173 107.17C93.6343 93.3457 95.876 78.2272 103.206 66.0473C105.068 62.9535 107.161 60.21 109.43 57.8315C107.499 47.1554 102.858 37.8209 96.4501 31H96.4493Z" fill="url(#paint0_linear)"/>
<path d="M58.0295 46.3056C55.4854 60.1173 57.6139 75.1836 64.8904 87.3957C72.1661 99.6079 82.621 106.452 93.8208 107.167C85.2164 98.071 80.2277 84.342 80.2277 69.0501C80.2277 65.1382 80.5814 61.3588 81.2566 57.7083C74.6056 50.7079 66.3951 46.8283 58.0295 46.3047V46.3056ZM134.502 46.6654C105.015 52.0296 93.941 81.9653 98.2135 107.168C127.876 101.803 138.83 72.0271 134.502 46.6654Z" fill="url(#paint1_linear)"/>
<path d="M48.3475 150.181C49.1721 150.669 50.3079 150.913 51.7551 150.913C54.5149 150.913 56.1809 149.634 56.753 147.076H57.0559L57.2578 150.509H60.9432V134.254C60.9432 131.595 60.7244 129.567 60.2869 128.17C59.8493 126.774 59.1005 125.789 58.0403 125.217C56.9802 124.645 55.4404 124.359 53.4211 124.359C51.4354 124.359 49.3151 124.561 47.0602 124.965V128.297C48.8776 127.994 50.6108 127.842 52.26 127.842C53.7072 127.842 54.7421 127.977 55.3647 128.246C55.9873 128.515 56.3996 129.071 56.6016 129.912C56.8035 130.753 56.9045 132.15 56.9045 134.102V135.92C55.0197 135.785 53.337 135.718 51.8561 135.718C50.3416 135.718 49.1636 135.953 48.3222 136.424C47.4809 136.896 46.8835 137.67 46.5301 138.747C46.1767 139.824 46 141.338 46 143.29C46 145.209 46.1851 146.715 46.5553 147.808C46.9255 148.902 47.5229 149.693 48.3475 150.181ZM55.2385 146.874C54.6664 147.144 53.9259 147.278 53.0172 147.278C52.1422 147.278 51.4859 147.152 51.0484 146.9C50.6108 146.647 50.3079 146.227 50.1397 145.638C49.9714 145.049 49.8872 144.182 49.8872 143.038C49.8872 141.792 49.9714 140.859 50.1397 140.236C50.3079 139.613 50.6024 139.193 51.0231 138.974C51.4438 138.755 52.058 138.646 52.8658 138.646H56.9045V140.413C56.9045 142.432 56.753 144.031 56.4501 145.209C56.2145 146.05 55.8106 146.605 55.2385 146.874ZM79.4202 150.509H84.3171L88.9616 124.763H85.1248L82.0453 144.906H81.7424L78.36 124.763H74.1194L70.8379 144.906H70.535L67.4051 124.763H63.3664L68.0109 150.509H72.9582L76.0377 132.285H76.3407L79.4202 150.509ZM91.9906 117.594H96.1302V113H91.9906V117.594ZM92.0411 150.509H96.0797V124.763H92.0411V150.509ZM102.062 150.181C102.887 150.669 104.022 150.913 105.47 150.913C108.229 150.913 109.895 149.634 110.468 147.076H110.77L110.972 150.509H114.658V134.254C114.658 131.595 114.439 129.567 114.001 128.17C113.564 126.774 112.815 125.789 111.755 125.217C110.695 124.645 109.155 124.359 107.136 124.359C105.15 124.359 103.03 124.561 100.775 124.965V128.297C102.592 127.994 104.325 127.842 105.975 127.842C107.422 127.842 108.457 127.977 109.079 128.246C109.702 128.515 110.114 129.071 110.316 129.912C110.518 130.753 110.619 132.15 110.619 134.102V135.92C108.734 135.785 107.052 135.718 105.571 135.718C104.056 135.718 102.878 135.953 102.037 136.424C101.195 136.896 100.598 137.67 100.245 138.747C99.8913 139.824 99.7146 141.338 99.7146 143.29C99.7146 145.209 99.8997 146.715 100.27 147.808C100.64 148.902 101.237 149.693 102.062 150.181ZM108.953 146.874C108.381 147.144 107.64 147.278 106.732 147.278C105.857 147.278 105.2 147.152 104.763 146.9C104.325 146.647 104.022 146.227 103.854 145.638C103.686 145.049 103.602 144.182 103.602 143.038C103.602 141.792 103.686 140.859 103.854 140.236C104.022 139.613 104.317 139.193 104.738 138.974C105.158 138.755 105.773 138.646 106.58 138.646H110.619V140.413C110.619 142.432 110.468 144.031 110.165 145.209C109.929 146.05 109.525 146.605 108.953 146.874ZM119.353 124.763V150.509H123.391V137.737C123.391 134.472 123.82 132.142 124.679 130.745C125.537 129.348 127.009 128.65 129.096 128.65V124.359C127.582 124.359 126.378 124.712 125.486 125.419C124.595 126.126 123.947 127.438 123.543 129.357H123.24L123.038 124.763H119.353ZM132.68 160.303C134.397 160.505 136.382 160.606 138.637 160.606C141.094 160.606 142.912 160.16 144.09 159.268C145.268 158.376 146.042 157.005 146.412 155.154C146.782 153.303 146.967 150.61 146.967 147.076V124.763H142.929V137.586C142.929 140.177 142.87 142.062 142.752 143.24C142.634 144.418 142.323 145.335 141.818 145.991C141.313 146.647 140.472 146.975 139.294 146.975C138.284 146.975 137.56 146.816 137.123 146.496C136.685 146.176 136.391 145.511 136.239 144.502C136.088 143.492 136.012 141.826 136.012 139.504V124.763H131.974V141.17C131.974 143.627 132.1 145.511 132.352 146.824C132.605 148.137 133.118 149.096 133.892 149.702C134.666 150.307 135.827 150.61 137.375 150.61C138.89 150.61 140.059 150.307 140.884 149.702C141.709 149.096 142.289 148.204 142.626 147.026H142.929V148.49C142.929 150.913 142.828 152.697 142.626 153.841C142.424 154.986 141.969 155.819 141.263 156.34C140.556 156.862 139.412 157.123 137.83 157.123C136.214 157.123 134.498 157.089 132.68 157.022V160.303Z" fill="#BC57AA"/>
<defs>
<linearGradient id="paint0_linear" x1="57.5431" y1="107.73" x2="134.834" y2="30.4394" gradientUnits="userSpaceOnUse">
<stop offset="0.05" stop-color="#E0B2D8"/>
<stop offset="0.95" stop-color="#BC57AA"/>
</linearGradient>
<linearGradient id="paint1_linear" x1="57.5606" y1="107.731" x2="134.851" y2="30.44" gradientUnits="userSpaceOnUse">
<stop offset="0.05" stop-color="#E0B2D8"/>
<stop offset="0.95" stop-color="#BC57AA"/>
</linearGradient>
</defs>
</svg>
