<svg width="512" height="512" viewBox="0 0 512 512" fill="none" xmlns="http://www.w3.org/2000/svg">
<path d="M248.372 20C219.152 50.6245 200.49 96.7514 200.263 148.448C200.039 200.145 218.295 246.643 247.25 277.518C238.855 230.781 246.434 179.668 271.214 138.489C277.509 128.03 284.587 118.754 292.257 110.713C285.73 74.6187 270.039 43.0605 248.375 20H248.372Z" fill="url(#paint0_linear)"/>
<path d="M118.48 71.7457C109.88 118.441 117.075 169.378 141.676 210.665C166.274 251.952 201.621 275.092 239.485 277.508C210.395 246.757 193.529 200.341 193.529 148.641C193.529 135.416 194.725 122.638 197.008 110.297C174.522 86.6294 146.763 73.513 118.48 71.7428V71.7457ZM377.023 72.9622C277.332 91.0978 239.892 192.306 254.337 277.514C354.62 259.375 391.654 158.706 377.023 72.9622Z" fill="url(#paint1_linear)"/>
<path d="M102.469 415.299C105.092 416.851 108.706 417.628 113.311 417.628C122.092 417.628 127.392 413.559 129.213 405.42H130.176L130.819 416.343H142.544V364.622C142.544 356.163 141.848 349.711 140.456 345.267C139.064 340.823 136.682 337.691 133.309 335.871C129.935 334.05 125.036 333.14 118.612 333.14C112.294 333.14 105.548 333.783 98.3731 335.068V345.669C104.156 344.705 109.67 344.223 114.917 344.223C119.522 344.223 122.815 344.651 124.796 345.508C126.777 346.365 128.088 348.132 128.731 350.809C129.373 353.486 129.695 357.93 129.695 364.14V369.923C123.698 369.494 118.344 369.28 113.632 369.28C108.814 369.28 105.066 370.03 102.389 371.529C99.7116 373.028 97.8109 375.491 96.6865 378.918C95.5622 382.344 95 387.163 95 393.374C95 399.477 95.589 404.269 96.7669 407.75C97.9448 411.23 99.8455 413.746 102.469 415.299ZM124.394 404.778C122.574 405.635 120.218 406.063 117.327 406.063C114.542 406.063 112.454 405.661 111.062 404.858C109.67 404.055 108.706 402.717 108.171 400.843C107.636 398.969 107.368 396.211 107.368 392.571C107.368 388.609 107.636 385.637 108.171 383.656C108.706 381.675 109.643 380.337 110.982 379.641C112.321 378.944 114.275 378.596 116.845 378.596H129.695V384.218C129.695 390.643 129.213 395.73 128.249 399.477C127.499 402.154 126.214 403.921 124.394 404.778ZM201.332 416.343H216.913L231.69 334.425H219.483L209.685 398.514H208.721L197.959 334.425H184.467L174.026 398.514H173.063L163.104 334.425H150.254L165.032 416.343H180.773L190.571 358.358H191.534L201.332 416.343ZM241.328 311.617H254.499V297H241.328V311.617ZM241.488 416.343H254.338V334.425H241.488V416.343ZM273.372 415.299C275.995 416.851 279.609 417.628 284.214 417.628C292.995 417.628 298.295 413.559 300.116 405.42H301.079L301.722 416.343H313.447V364.622C313.447 356.163 312.751 349.711 311.359 345.267C309.967 340.823 307.584 337.691 304.211 335.871C300.838 334.05 295.939 333.14 289.514 333.14C283.197 333.14 276.45 333.783 269.276 335.068V345.669C275.058 344.705 280.573 344.223 285.82 344.223C290.425 344.223 293.717 344.651 295.698 345.508C297.679 346.365 298.991 348.132 299.634 350.809C300.276 353.486 300.597 357.93 300.597 364.14V369.923C294.601 369.494 289.247 369.28 284.535 369.28C279.716 369.28 275.969 370.03 273.291 371.529C270.614 373.028 268.714 375.491 267.589 378.918C266.465 382.344 265.903 387.163 265.903 393.374C265.903 399.477 266.492 404.269 267.67 407.75C268.848 411.23 270.748 413.746 273.372 415.299ZM295.297 404.778C293.476 405.635 291.121 406.063 288.229 406.063C285.445 406.063 283.357 405.661 281.965 404.858C280.573 404.055 279.609 402.717 279.074 400.843C278.539 398.969 278.271 396.211 278.271 392.571C278.271 388.609 278.539 385.637 279.074 383.656C279.609 381.675 280.546 380.337 281.885 379.641C283.223 378.944 285.178 378.596 287.748 378.596H300.597V384.218C300.597 390.643 300.116 395.73 299.152 399.477C298.402 402.154 297.117 403.921 295.297 404.778ZM328.385 334.425V416.343H341.235V375.705C341.235 365.318 342.6 357.903 345.331 353.459C348.061 349.015 352.746 346.793 359.385 346.793V333.14C354.567 333.14 350.739 334.265 347.901 336.513C345.063 338.762 343.002 342.938 341.717 349.042H340.753L340.111 334.425H328.385ZM370.79 447.504C376.251 448.146 382.569 448.467 389.743 448.467C397.56 448.467 403.343 447.049 407.09 444.211C410.838 441.373 413.301 437.01 414.479 431.12C415.657 425.231 416.246 416.664 416.246 405.42V334.425H403.396V375.223C403.396 383.469 403.209 389.465 402.834 393.213C402.459 396.961 401.469 399.879 399.862 401.967C398.256 404.055 395.579 405.099 391.831 405.099C388.619 405.099 386.317 404.591 384.924 403.573C383.532 402.556 382.595 400.441 382.114 397.229C381.632 394.016 381.391 388.716 381.391 381.327V334.425H368.541V386.628C368.541 394.445 368.942 400.441 369.746 404.617C370.549 408.794 372.182 411.845 374.645 413.773C377.107 415.7 380.802 416.664 385.728 416.664C390.546 416.664 394.267 415.7 396.891 413.773C399.514 411.845 401.362 409.008 402.432 405.26H403.396V409.918C403.396 417.628 403.075 423.303 402.432 426.944C401.79 430.585 400.344 433.235 398.096 434.895C395.847 436.555 392.206 437.384 387.173 437.384C382.033 437.384 376.572 437.277 370.79 437.063V447.504Z" fill="#BC57AA"/>
<defs>
<linearGradient id="paint0_linear" x1="116.836" y1="279.413" x2="378.144" y2="18.1049" gradientUnits="userSpaceOnUse">
<stop offset="0.05" stop-color="#E0B2D8"/>
<stop offset="0.95" stop-color="#BC57AA"/>
</linearGradient>
<linearGradient id="paint1_linear" x1="116.895" y1="279.415" x2="378.203" y2="18.1066" gradientUnits="userSpaceOnUse">
<stop offset="0.05" stop-color="#E0B2D8"/>
<stop offset="0.95" stop-color="#BC57AA"/>
</linearGradient>
</defs>
</svg>
