<svg id="google" xmlns="http://www.w3.org/2000/svg" width="21.5" height="21.5" viewBox="0 0 21.5 21.5">
  <path id="Path_1278" data-name="Path 1278" d="M4.765,145.455l-.748,2.794-2.735.058A10.769,10.769,0,0,1,1.2,138.268h0l2.435.446L4.7,141.135a6.416,6.416,0,0,0,.06,4.319Z" transform="translate(0 -132.462)" fill="#fbbb00"/>
  <path id="Path_1279" data-name="Path 1279" d="M271.954,208.176a10.746,10.746,0,0,1-3.832,10.391h0l-3.067-.157-.434-2.71a6.407,6.407,0,0,0,2.757-3.272h-5.748v-4.253h10.326Z" transform="translate(-250.642 -199.434)" fill="#518ef8"/>
  <path id="Path_1280" data-name="Path 1280" d="M46.707,315.549h0a10.753,10.753,0,0,1-16.2-3.289l3.484-2.852a6.393,6.393,0,0,0,9.213,3.273Z" transform="translate(-29.228 -296.416)" fill="#28b446"/>
  <path id="Path_1281" data-name="Path 1281" d="M45.034,2.475,41.551,5.326a6.393,6.393,0,0,0-9.425,3.347l-3.5-2.867h0a10.752,10.752,0,0,1,16.41-3.331Z" transform="translate(-27.422)" fill="#f14336"/>
</svg>
