<svg xmlns="http://www.w3.org/2000/svg" width="22.964" height="17.5" viewBox="0 0 22.964 17.5">
  <path id="sign-out-alt-solid" d="M22.646,73.5l-7.655,7.655a1.1,1.1,0,0,1-1.868-.775V76.009h-6.2a1.091,1.091,0,0,1-1.094-1.094V70.541a1.091,1.091,0,0,1,1.094-1.094h6.2V65.073a1.1,1.1,0,0,1,1.868-.775l7.655,7.655A1.1,1.1,0,0,1,22.646,73.5ZM8.749,80.93V79.107a.548.548,0,0,0-.547-.547H4.374A1.457,1.457,0,0,1,2.916,77.1V68.354A1.457,1.457,0,0,1,4.374,66.9H8.2a.548.548,0,0,0,.547-.547V64.526A.548.548,0,0,0,8.2,63.98H4.374A4.375,4.375,0,0,0,0,68.354V77.1a4.375,4.375,0,0,0,4.374,4.374H8.2A.548.548,0,0,0,8.749,80.93Z" transform="translate(0 -63.979)" fill="#5e73a3"/>
</svg>
