<svg id="SvgjsSvg1263" width="100%" height="100%" xmlns="http://www.w3.org/2000/svg" version="1.1" xlink="http://www.w3.org/1999/xlink" xmlns:svgjs="http://svgjs.com/svgjs" preserveAspectRatio="xMidYMid meet" viewBox="0.0000034167017020081403 -2.4975494739010173e-7 300 119.01509094238281" overflow="visible"><defs id="SvgjsDefs1264"><linearGradient id="SvgjsLinearGradientZ_woIfFhxp" gradientUnits="userSpaceOnUse" x1="5.642803192138699" y1="94.643404006958" x2="94.35660934448242" y2="5.929597854614257"><stop id="SvgjsStop1267" stop-color="#e0b2d8" offset="0.05"></stop><stop id="SvgjsStop1268" stop-color="#bc57aa" offset="0.95"></stop></linearGradient></defs><g id="SvgjsG1265" transform="scale(1.3146771949440768)" opacity="1"><g id="SvgjsG1269" class="E2GLAmq3wU" transform="translate(-5.176724920074828, -6.806141427278897) scale(1.0354695686412494)" light-content="false" non-strokable="false" fill="url(#SvgjsLinearGradientZ_woIfFhxp)"><path d="M50.299 6.573C40.379 16.97 34.043 32.63 33.966 50.181 33.89 67.732 40.088 83.518 49.918 94c-2.85-15.867-.277-33.22 8.136-47.2 2.137-3.551 4.54-6.7 7.144-9.43C62.982 25.116 57.655 14.402 50.3 6.573z" color="#000"></path><path d="M6.181 24.14c-2.92 15.853-.477 33.146 7.875 47.163 8.351 14.017 20.351 21.873 33.206 22.693-9.876-10.44-15.602-26.198-15.602-43.75 0-4.49.406-8.828 1.181-13.018-7.634-8.035-17.058-12.488-26.66-13.089zm87.775.413C60.111 30.71 47.4 65.07 52.304 93.998 86.35 87.84 98.923 53.663 93.956 24.553z" color="#000"></path></g><g id="SvgjsG1270" class="text" transform="translate(168.91289994422687, 61.55400183105469) scale(1)" light-content="false" fill="#bc57aa"><path d="M-57.93 -0.39C-56.95 0.19 -55.6 0.48 -53.88 0.48C-50.6 0.48 -48.62 -1.04 -47.94 -4.08L-47.58 -4.08L-47.34 0L-42.96 0L-42.96 -19.32C-42.96 -22.48 -43.22 -24.89 -43.74 -26.55C-44.26 -28.21 -45.15 -29.38 -46.41 -30.06C-47.67 -30.74 -49.5 -31.08 -51.9 -31.08C-54.26 -31.08 -56.78 -30.84 -59.46 -30.36L-59.46 -26.4C-57.3 -26.76 -55.24 -26.94 -53.28 -26.94C-51.56 -26.94 -50.33 -26.78 -49.59 -26.46C-48.85 -26.14 -48.36 -25.48 -48.12 -24.48C-47.88 -23.48 -47.76 -21.82 -47.76 -19.5L-47.76 -17.34C-50 -17.5 -52 -17.58 -53.76 -17.58C-55.56 -17.58 -56.96 -17.3 -57.96 -16.74C-58.96 -16.18 -59.67 -15.26 -60.09 -13.98C-60.51 -12.7 -60.72 -10.9 -60.72 -8.58C-60.72 -6.3 -60.5 -4.51 -60.06 -3.21C-59.62 -1.91 -58.91 -0.97 -57.93 -0.39ZM-49.74 -4.32C-50.42 -4 -51.3 -3.84 -52.38 -3.84C-53.42 -3.84 -54.2 -3.99 -54.72 -4.29C-55.24 -4.59 -55.6 -5.09 -55.8 -5.79C-56 -6.49 -56.1 -7.52 -56.1 -8.88C-56.1 -10.36 -56 -11.47 -55.8 -12.21C-55.6 -12.95 -55.25 -13.45 -54.75 -13.71C-54.25 -13.97 -53.52 -14.1 -52.56 -14.1L-47.76 -14.1L-47.76 -12C-47.76 -9.6 -47.94 -7.7 -48.3 -6.3C-48.58 -5.3 -49.06 -4.64 -49.74 -4.32Z M-21 0L-15.18 0L-9.66 -30.6L-14.22 -30.6L-17.88 -6.66L-18.24 -6.66L-22.26 -30.6L-27.3 -30.6L-31.2 -6.66L-31.56 -6.66L-35.28 -30.6L-40.08 -30.6L-34.56 0L-28.68 0L-25.02 -21.66L-24.66 -21.66Z M-6.06 -39.12L-1.14 -39.12L-1.14 -44.58L-6.06 -44.58ZM-6 0L-1.2 0L-1.2 -30.6L-6 -30.6Z M5.91 -0.39C6.89 0.19 8.24 0.48 9.96 0.48C13.24 0.48 15.22 -1.04 15.9 -4.08L16.26 -4.08L16.5 0L20.88 0L20.88 -19.32C20.88 -22.48 20.62 -24.89 20.1 -26.55C19.58 -28.21 18.69 -29.38 17.43 -30.06C16.17 -30.74 14.34 -31.08 11.94 -31.08C9.58 -31.08 7.06 -30.84 4.38 -30.36L4.38 -26.4C6.54 -26.76 8.6 -26.94 10.56 -26.94C12.28 -26.94 13.51 -26.78 14.25 -26.46C14.99 -26.14 15.48 -25.48 15.72 -24.48C15.96 -23.48 16.08 -21.82 16.08 -19.5L16.08 -17.34C13.84 -17.5 11.84 -17.58 10.08 -17.58C8.28 -17.58 6.88 -17.3 5.88 -16.74C4.88 -16.18 4.17 -15.26 3.75 -13.98C3.33 -12.7 3.12 -10.9 3.12 -8.58C3.12 -6.3 3.34 -4.51 3.78 -3.21C4.22 -1.91 4.93 -0.97 5.91 -0.39ZM14.1 -4.32C13.42 -4 12.54 -3.84 11.46 -3.84C10.42 -3.84 9.64 -3.99 9.12 -4.29C8.6 -4.59 8.24 -5.09 8.04 -5.79C7.84 -6.49 7.74 -7.52 7.74 -8.88C7.74 -10.36 7.84 -11.47 8.04 -12.21C8.24 -12.95 8.59 -13.45 9.09 -13.71C9.59 -13.97 10.32 -14.1 11.28 -14.1L16.08 -14.1L16.08 -12C16.08 -9.6 15.9 -7.7 15.54 -6.3C15.26 -5.3 14.78 -4.64 14.1 -4.32Z M26.46 -30.6L26.46 0L31.26 0L31.26 -15.18C31.26 -19.06 31.77 -21.83 32.79 -23.49C33.81 -25.15 35.56 -25.98 38.04 -25.98L38.04 -31.08C36.24 -31.08 34.81 -30.66 33.75 -29.82C32.69 -28.98 31.92 -27.42 31.44 -25.14L31.08 -25.14L30.84 -30.6Z M42.3 11.64C44.34 11.88 46.7 12 49.38 12C52.3 12 54.46 11.47 55.86 10.41C57.26 9.35 58.18 7.72 58.62 5.52C59.06 3.32 59.28 0.12 59.28 -4.08L59.28 -30.6L54.48 -30.6L54.48 -15.36C54.48 -12.28 54.41 -10.04 54.27 -8.64C54.13 -7.24 53.76 -6.15 53.16 -5.37C52.56 -4.59 51.56 -4.2 50.16 -4.2C48.96 -4.2 48.1 -4.39 47.58 -4.77C47.06 -5.15 46.71 -5.94 46.53 -7.14C46.35 -8.34 46.26 -10.32 46.26 -13.08L46.26 -30.6L41.46 -30.6L41.46 -11.1C41.46 -8.18 41.61 -5.94 41.91 -4.38C42.21 -2.82 42.82 -1.68 43.74 -0.96C44.66 -0.24 46.04 0.12 47.88 0.12C49.68 0.12 51.07 -0.24 52.05 -0.96C53.03 -1.68 53.72 -2.74 54.12 -4.14L54.48 -4.14L54.48 -2.4C54.48 0.48 54.36 2.6 54.12 3.96C53.88 5.32 53.34 6.31 52.5 6.93C51.66 7.55 50.3 7.86 48.42 7.86C46.5 7.86 44.46 7.82 42.3 7.74Z"></path></g></g></svg>